<svg viewBox="0 0 43 25" fill="none" xmlns="http://www.w3.org/2000/svg">
<path fill-rule="evenodd" clip-rule="evenodd" d="M2.39751 25C1.07312 25 0 23.9274 0 22.6036V2.39694C0 1.42735 0.584033 0.553615 1.48022 0.183128C2.37449 -0.188796 3.40686 0.0163374 4.09255 0.702673L14.2004 10.806C15.1369 11.7416 15.1369 13.259 14.2004 14.1945C13.2649 15.1306 11.7459 15.1306 10.8104 14.1945L4.79502 8.18239V22.6036C4.79502 23.9274 3.72189 25 2.39751 25Z" fill="currentColor"/>
<path fill-rule="evenodd" clip-rule="evenodd" d="M30.4947 14.8967C29.8814 14.8967 29.2672 14.6628 28.7996 14.1945C27.8632 13.2589 27.8632 11.7415 28.7996 10.806L38.9075 0.702642C39.843 -0.2334 41.3621 -0.2334 42.2976 0.702642C43.2341 1.63821 43.2341 3.15562 42.2976 4.09118L32.1897 14.1945C31.7222 14.6628 31.108 14.8967 30.4947 14.8967Z" fill="currentColor"/>
<path fill-rule="evenodd" clip-rule="evenodd" d="M40.6026 25C39.9893 25 39.375 24.7662 38.9075 24.2979L28.7996 14.1946C27.8632 13.259 27.8632 11.7416 28.7996 10.806C29.7351 9.86999 31.2542 9.86999 32.1897 10.806L42.2976 20.9094C43.2341 21.8449 43.2341 23.3623 42.2976 24.2979C41.8301 24.7662 41.2159 25 40.6026 25Z" fill="currentColor"/>
<path fill-rule="evenodd" clip-rule="evenodd" d="M22.6128 25C21.2885 25 20.2153 23.9274 20.2153 22.6036V8.18239L14.2005 14.1945C13.265 15.1306 11.7459 15.1306 10.8104 14.1945C9.87392 13.259 9.87392 11.7416 10.8104 10.806L20.9178 0.702673C21.604 0.0163374 22.6358 -0.188796 23.5301 0.183128C24.4263 0.553615 25.0103 1.42735 25.0103 2.39694V22.6036C25.0103 23.9274 23.9372 25 22.6128 25Z" fill="currentColor"/>
<path fill-rule="evenodd" clip-rule="evenodd" d="M23.5 25C22.119 25 21 23.9273 21 22.6035V2.39647C21 1.07266 22.119 0 23.5 0C24.881 0 26 1.07266 26 2.39647V22.6035C26 23.9273 24.881 25 23.5 25Z" fill="currentColor"/>
</svg>
